53Veda-U.ufo
<glyph name="plus" format="1">
  <advance width="1024"/>
  <unicode hex="002B"/>
  <outline>
    <contour>
      <point x="384" y="384" type="line"/>
      <point x="384" y="768" type="line"/>
      <point x="512" y="768" type="line"/>
      <point x="512" y="384" type="line"/>
      <point x="896" y="384" type="line"/>
      <point x="896" y="256" type="line"/>
      <point x="512" y="256" type="line"/>
      <point x="512" y="-128" type="line"/>
      <point x="384" y="-128" type="line"/>
      <point x="384" y="256" type="line"/>
      <point x="0" y="256" type="line"/>
      <point x="0" y="384" type="line"/>
    </contour>
  </outline>
</glyph>
<glyph name="W" format="1">
  <advance width="768"/>
  <unicode hex="0057"/>
  <outline>
    <contour>
      <point x="0" y="0" type="line"/>
      <point x="0" y="640" type="line"/>
      <point x="128" y="640" type="line"/>
      <point x="128" y="128" type="line"/>
      <point x="256" y="128" type="line"/>
      <point x="256" y="640" type="line"/>
      <point x="384" y="640" type="line"/>
      <point x="384" y="128" type="line"/>
      <point x="512" y="128" type="line"/>
      <point x="512" y="0" type="line"/>
    </contour>
    <contour>
      <point x="512" y="128" type="line"/>
      <point x="512" y="640" type="line"/>
      <point x="640" y="640" type="line"/>
      <point x="640" y="128" type="line"/>
    </contour>
  </outline>
</glyph>
<glyph name="bar" format="1">
  <advance width="256"/>
  <unicode hex="007C"/>
  <outline>
    <contour>
      <point x="0" y="-128" type="line"/>
      <point x="0" y="768" type="line"/>
      <point x="128" y="768" type="line"/>
      <point x="128" y="-128" type="line"/>
    </contour>
  </outline>
</glyph>
<glyph name="dieresis" format="1">
  <advance width="1024"/>
  <unicode hex="00A8"/>
  <outline>
    <contour>
      <point x="256" y="640" type="line"/>
      <point x="256" y="768" type="line"/>
      <point x="384" y="768" type="line"/>
      <point x="384" y="640" type="line"/>
    </contour>
    <contour>
      <point x="512" y="640" type="line"/>
      <point x="512" y="768" type="line"/>
      <point x="640" y="768" type="line"/>
      <point x="640" y="640" type="line"/>
    </contour>
  </outline>
</glyph>
<glyph name="acute" format="1">
  <advance width="1024"/>
  <unicode hex="00B4"/>
  <outline>
    <contour>
      <point x="512" y="640" type="line"/>
      <point x="512" y="768" type="line"/>
      <point x="640" y="768" type="line"/>
      <point x="640" y="640" type="line"/>
    </contour>
    <contour>
      <point x="384" y="512" type="line"/>
      <point x="384" y="640" type="line"/>
      <point x="512" y="640" type="line"/>
      <point x="512" y="512" type="line"/>
    </contour>
  </outline>
</glyph>
<glyph name="ucircumflex" format="1">
  <advance width="512"/>
  <unicode hex="00FB"/>
  <outline>
    <contour>
      <point x="42" y="2" type="line"/>
      <point x="42" y="514" type="line"/>
      <point x="170" y="514" type="line"/>
      <point x="170" y="130" type="line"/>
      <point x="298" y="130" type="line"/>
      <point x="298" y="514" type="line"/>
      <point x="426" y="514" type="line"/>
      <point x="426" y="2" type="line"/>
    </contour>
    <contour>
      <point x="42" y="642" type="line"/>
      <point x="42" y="770" type="line"/>
      <point x="170" y="770" type="line"/>
      <point x="170" y="642" type="line"/>
    </contour>
    <contour>
      <point x="298" y="642" type="line"/>
      <point x="298" y="770" type="line"/>
      <point x="426" y="770" type="line"/>
      <point x="426" y="642" type="line"/>
    </contour>
    <contour>
      <point x="170" y="770" type="line"/>
      <point x="170" y="898" type="line"/>
      <point x="298" y="898" type="line"/>
      <point x="298" y="770" type="line"/>
    </contour>
  </outline>
</glyph>
<glyph name="Alpha" format="1">
  <advance width="1024"/>
  <unicode hex="0391"/>
  <outline>
    <contour>
      <point x="384" y="640" type="line"/>
      <point x="384" y="768" type="line"/>
      <point x="512" y="768" type="line"/>
      <point x="512" y="640" type="line"/>
    </contour>
    <contour>
      <point x="256" y="384" type="line"/>
      <point x="256" y="640" type="line"/>
      <point x="384" y="640" type="line"/>
      <point x="384" y="384" type="line"/>
    </contour>
    <contour>
      <point x="128" y="128" type="line"/>
      <point x="128" y="384" type="line"/>
      <point x="256" y="384" type="line"/>
      <point x="256" y="256" type="line"/>
      <point x="640" y="256" type="line"/>
      <point x="640" y="384" type="line"/>
      <point x="512" y="384" type="line"/>
      <point x="512" y="640" type="line"/>
      <point x="640" y="640" type="line"/>
      <point x="640" y="384" type="line"/>
      <point x="768" y="384" type="line"/>
      <point x="768" y="128" type="line"/>
    </contour>
    <contour>
      <point x="0" y="-128" type="line"/>
      <point x="0" y="128" type="line"/>
      <point x="128" y="128" type="line"/>
      <point x="128" y="-128" type="line"/>
    </contour>
    <contour>
      <point x="768" y="128" type="line"/>
      <point x="896" y="128" type="line"/>
      <point x="896" y="-128" type="line"/>
      <point x="768" y="-128" type="line"/>
    </contour>
  </outline>
</glyph>
<glyph name="Gamma" format="1">
  <advance width="1024"/>
  <unicode hex="0393"/>
  <outline>
    <contour>
      <point x="128" y="-128" type="line"/>
      <point x="128" y="768" type="line"/>
      <point x="896" y="768" type="line"/>
      <point x="896" y="640" type="line"/>
      <point x="256" y="640" type="line"/>
      <point x="256" y="-128" type="line"/>
    </contour>
  </outline>
</glyph>
<glyph name="Iota" format="1">
  <advance width="1024"/>
  <unicode hex="0399"/>
  <outline>
    <contour>
      <point x="256" y="640" type="line"/>
      <point x="256" y="768" type="line"/>
      <point x="640" y="768" type="line"/>
      <point x="640" y="640" type="line"/>
      <point x="512" y="640" type="line"/>
      <point x="512" y="0" type="line"/>
      <point x="640" y="0" type="line"/>
      <point x="640" y="-128" type="line"/>
      <point x="256" y="-128" type="line"/>
      <point x="256" y="0" type="line"/>
      <point x="384" y="0" type="line"/>
      <point x="384" y="640" type="line"/>
    </contour>
  </outline>
</glyph>
<glyph name="Mu" format="1">
  <advance width="1024"/>
  <unicode hex="039C"/>
  <outline>
    <contour>
      <point x="0" y="-128" type="line"/>
      <point x="0" y="768" type="line"/>
      <point x="128" y="768" type="line"/>
      <point x="128" y="640" type="line"/>
      <point x="256" y="640" type="line"/>
      <point x="256" y="512" type="line"/>
      <point x="128" y="512" type="line"/>
      <point x="128" y="-128" type="line"/>
    </contour>
    <contour>
      <point x="768" y="640" type="line"/>
      <point x="768" y="768" type="line"/>
      <point x="896" y="768" type="line"/>
      <point x="896" y="-128" type="line"/>
      <point x="768" y="-128" type="line"/>
      <point x="768" y="512" type="line"/>
      <point x="640" y="512" type="line"/>
      <point x="640" y="640" type="line"/>
    </contour>
    <contour>
      <point x="512" y="256" type="line"/>
      <point x="512" y="512" type="line"/>
      <point x="640" y="512" type="line"/>
      <point x="640" y="256" type="line"/>
    </contour>
    <contour>
      <point x="256" y="512" type="line"/>
      <point x="384" y="512" type="line"/>
      <point x="384" y="256" type="line"/>
      <point x="256" y="256" type="line"/>
    </contour>
    <contour>
      <point x="512" y="256" type="line"/>
      <point x="512" y="0" type="line"/>
      <point x="384" y="0" type="line"/>
      <point x="384" y="256" type="line"/>
    </contour>
  </outline>
</glyph>
<glyph name="Pi" format="1">
  <advance width="1024"/>
  <unicode hex="03A0"/>
  <outline>
    <contour>
      <point x="128" y="-128" type="line"/>
      <point x="128" y="768" type="line"/>
      <point x="896" y="768" type="line"/>
      <point x="896" y="-128" type="line"/>
      <point x="768" y="-128" type="line"/>
      <point x="768" y="640" type="line"/>
      <point x="256" y="640" type="line"/>
      <point x="256" y="-128" type="line"/>
    </contour>
  </outline>
</glyph>
<glyph name="Tau" format="1">
  <advance width="1024"/>
  <unicode hex="03A4"/>
  <outline>
    <contour>
      <point x="0" y="640" type="line"/>
      <point x="0" y="768" type="line"/>
      <point x="896" y="768" type="line"/>
      <point x="896" y="640" type="line"/>
      <point x="512" y="640" type="line"/>
      <point x="512" y="-128" type="line"/>
      <point x="384" y="-128" type="line"/>
      <point x="384" y="640" type="line"/>
    </contour>
  </outline>
</glyph>
<glyph name="uni0421" format="1">
  <advance width="512"/>
  <unicode hex="0421"/>
  <outline>
    <contour>
      <point x="0" y="0" type="line"/>
      <point x="0" y="512" type="line"/>
      <point x="128" y="512" type="line"/>
      <point x="128" y="128" type="line"/>
      <point x="384" y="128" type="line"/>
      <point x="384" y="0" type="line"/>
    </contour>
    <contour>
      <point x="128" y="512" type="line"/>
      <point x="128" y="640" type="line"/>
      <point x="384" y="640" type="line"/>
      <point x="384" y="512" type="line"/>
    </contour>
  </outline>
</glyph>
<glyph name="uni0433" format="1">
  <advance width="512"/>
  <unicode hex="0433"/>
  <outline>
    <contour>
      <point x="0" y="0" type="line"/>
      <point x="0" y="512" type="line"/>
      <point x="384" y="512" type="line"/>
      <point x="384" y="384" type="line"/>
      <point x="128" y="384" type="line"/>
      <point x="128" y="0" type="line"/>
    </contour>
  </outline>
</glyph>
<glyph name="uni0490" format="1">
  <advance width="512"/>
  <unicode hex="0490"/>
  <outline>
    <contour>
      <point x="0" y="0" type="line"/>
      <point x="0" y="640" type="line"/>
      <point x="256" y="640" type="line"/>
      <point x="256" y="768" type="line"/>
      <point x="384" y="768" type="line"/>
      <point x="384" y="512" type="line"/>
      <point x="128" y="512" type="line"/>
      <point x="128" y="0" type="line"/>
    </contour>
  </outline>
</glyph>
<glyph name="uni2010" format="1">
  <advance width="1024"/>
  <unicode hex="2010"/>
  <outline>
    <contour>
      <point x="256" y="256" type="line"/>
      <point x="256" y="384" type="line"/>
      <point x="640" y="384" type="line"/>
      <point x="640" y="256" type="line"/>
    </contour>
  </outline>
</glyph>
<glyph name="quoteleft" format="1">
  <advance width="1024"/>
  <unicode hex="2018"/>
  <outline>
    <contour>
      <point x="768" y="640" type="line"/>
      <point x="768" y="768" type="line"/>
      <point x="896" y="768" type="line"/>
      <point x="896" y="640" type="line"/>
    </contour>
    <contour>
      <point x="640" y="384" type="line"/>
      <point x="640" y="640" type="line"/>
      <point x="768" y="640" type="line"/>
      <point x="768" y="512" type="line"/>
      <point x="896" y="512" type="line"/>
      <point x="896" y="384" type="line"/>
    </contour>
  </outline>
</glyph>
<glyph name="dagger" format="1">
  <advance width="1024"/>
  <unicode hex="2020"/>
  <outline>
    <contour>
      <point x="384" y="640" type="line"/>
      <point x="384" y="768" type="line"/>
      <point x="512" y="768" type="line"/>
      <point x="512" y="640" type="line"/>
      <point x="640" y="640" type="line"/>
      <point x="640" y="512" type="line"/>
      <point x="512" y="512" type="line"/>
      <point x="512" y="-128" type="line"/>
      <point x="384" y="-128" type="line"/>
      <point x="384" y="512" type="line"/>
      <point x="256" y="512" type="line"/>
      <point x="256" y="640" type="line"/>
    </contour>
  </outline>
</glyph>
<glyph name="twodotenleader" format="1">
  <advance width="1024"/>
  <unicode hex="2025"/>
  <outline>
    <contour>
      <point x="128" y="256" type="line"/>
      <point x="128" y="384" type="line"/>
      <point x="256" y="384" type="line"/>
      <point x="256" y="256" type="line"/>
    </contour>
    <contour>
      <point x="640" y="256" type="line"/>
      <point x="640" y="384" type="line"/>
      <point x="768" y="384" type="line"/>
      <point x="768" y="256" type="line"/>
    </contour>
  </outline>
</glyph>
<glyph name="uni2160" format="1">
  <advance width="1024"/>
  <unicode hex="2160"/>
  <outline>
    <contour>
      <point x="384" y="-128" type="line"/>
      <point x="384" y="768" type="line"/>
      <point x="512" y="768" type="line"/>
      <point x="512" y="-128" type="line"/>
    </contour>
  </outline>
</glyph>
<glyph name="existential" format="1">
  <advance width="1024"/>
  <unicode hex="2203"/>
  <outline>
    <contour>
      <point x="128" y="640" type="line"/>
      <point x="128" y="768" type="line"/>
      <point x="896" y="768" type="line"/>
      <point x="896" y="-128" type="line"/>
      <point x="128" y="-128" type="line"/>
      <point x="128" y="0" type="line"/>
      <point x="768" y="0" type="line"/>
      <point x="768" y="256" type="line"/>
      <point x="128" y="256" type="line"/>
      <point x="128" y="384" type="line"/>
      <point x="768" y="384" type="line"/>
      <point x="768" y="640" type="line"/>
    </contour>
  </outline>
</glyph>
<glyph name="orthogonal" format="1">
  <advance width="1024"/>
  <unicode hex="221F"/>
  <outline>
    <contour>
      <point x="128" y="-128" type="line"/>
      <point x="128" y="640" type="line"/>
      <point x="256" y="640" type="line"/>
      <point x="256" y="0" type="line"/>
      <point x="896" y="0" type="line"/>
      <point x="896" y="-128" type="line"/>
    </contour>
  </outline>
</glyph>
<glyph name="uni2225" format="1">
  <advance width="1024"/>
  <unicode hex="2225"/>
  <outline>
    <contour>
      <point x="256" y="-128" type="line"/>
      <point x="256" y="768" type="line"/>
      <point x="384" y="768" type="line"/>
      <point x="384" y="-128" type="line"/>
    </contour>
    <contour>
      <point x="512" y="-128" type="line"/>
      <point x="512" y="768" type="line"/>
      <point x="640" y="768" type="line"/>
      <point x="640" y="-128" type="line"/>
    </contour>
  </outline>
</glyph>
<glyph name="intersection" format="1">
  <advance width="1024"/>
  <unicode hex="2229"/>
  <outline>
    <contour>
      <point x="256" y="512" type="line"/>
      <point x="256" y="640" type="line"/>
      <point x="768" y="640" type="line"/>
      <point x="768" y="512" type="line"/>
    </contour>
    <contour>
      <point x="128" y="-128" type="line"/>
      <point x="128" y="512" type="line"/>
      <point x="256" y="512" type="line"/>
      <point x="256" y="-128" type="line"/>
    </contour>
    <contour>
      <point x="768" y="512" type="line"/>
      <point x="896" y="512" type="line"/>
      <point x="896" y="-128" type="line"/>
      <point x="768" y="-128" type="line"/>
    </contour>
  </outline>
</glyph>
<glyph name="notequal" format="1">
  <advance width="1024"/>
  <unicode hex="2260"/>
  <outline>
    <contour>
      <point x="640" y="512" type="line"/>
      <point x="640" y="640" type="line"/>
      <point x="768" y="640" type="line"/>
      <point x="768" y="512" type="line"/>
      <point x="896" y="512" type="line"/>
      <point x="896" y="384" type="line"/>
      <point x="512" y="384" type="line"/>
      <point x="512" y="256" type="line"/>
      <point x="896" y="256" type="line"/>
      <point x="896" y="128" type="line"/>
      <point x="256" y="128" type="line"/>
      <point x="256" y="0" type="line"/>
      <point x="128" y="0" type="line"/>
      <point x="128" y="128" type="line"/>
      <point x="0" y="128" type="line"/>
      <point x="0" y="256" type="line"/>
      <point x="384" y="256" type="line"/>
      <point x="384" y="384" type="line"/>
      <point x="0" y="384" type="line"/>
      <point x="0" y="512" type="line"/>
    </contour>
  </outline>
</glyph>
<glyph name="propersuperset" format="1">
  <advance width="1024"/>
  <unicode hex="2283"/>
  <outline>
    <contour>
      <point x="128" y="512" type="line"/>
      <point x="128" y="640" type="line"/>
      <point x="768" y="640" type="line"/>
      <point x="768" y="512" type="line"/>
    </contour>
    <contour>
      <point x="128" y="0" type="line"/>
      <point x="128" y="128" type="line"/>
      <point x="768" y="128" type="line"/>
      <point x="768" y="512" type="line"/>
      <point x="896" y="512" type="line"/>
      <point x="896" y="128" type="line"/>
      <point x="768" y="128" type="line"/>
      <point x="768" y="0" type="line"/>
    </contour>
  </outline>
</glyph>
<glyph name="perpendicular" format="1">
  <advance width="1024"/>
  <unicode hex="22A5"/>
  <outline>
    <contour>
      <point x="384" y="0" type="line"/>
      <point x="384" y="640" type="line"/>
      <point x="512" y="640" type="line"/>
      <point x="512" y="0" type="line"/>
      <point x="896" y="0" type="line"/>
      <point x="896" y="-128" type="line"/>
      <point x="0" y="-128" type="line"/>
      <point x="0" y="0" type="line"/>
    </contour>
  </outline>
</glyph>
<glyph name="uni2501" format="1">
  <advance width="1024"/>
  <unicode hex="2501"/>
  <outline>
    <contour>
      <point x="0" y="128" type="line"/>
      <point x="0" y="384" type="line"/>
      <point x="1024" y="384" type="line"/>
      <point x="1024" y="128" type="line"/>
    </contour>
  </outline>
</glyph>
<glyph name="SF110000" format="1">
  <advance width="1024"/>
  <unicode hex="2502"/>
  <outline>
    <contour>
      <point x="384" y="-256" type="line"/>
      <point x="384" y="768" type="line"/>
      <point x="512" y="768" type="line"/>
      <point x="512" y="-256" type="line"/>
    </contour>
  </outline>
</glyph>
<glyph name="uni2503" format="1">
  <advance width="1024"/>
  <unicode hex="2503"/>
  <outline>
    <contour>
      <point x="384" y="-256" type="line"/>
      <point x="384" y="768" type="line"/>
      <point x="640" y="768" type="line"/>
      <point x="640" y="-256" type="line"/>
    </contour>
  </outline>
</glyph>
<glyph name="uni250F" format="1">
  <advance width="1024"/>
  <unicode hex="250F"/>
  <outline>
    <contour>
      <point x="384" y="-256" type="line"/>
      <point x="384" y="384" type="line"/>
      <point x="1024" y="384" type="line"/>
      <point x="1024" y="128" type="line"/>
      <point x="640" y="128" type="line"/>
      <point x="640" y="-256" type="line"/>
    </contour>
  </outline>
</glyph>
<glyph name="uni2513" format="1">
  <advance width="1024"/>
  <unicode hex="2513"/>
  <outline>
    <contour>
      <point x="0" y="128" type="line"/>
      <point x="0" y="384" type="line"/>
      <point x="640" y="384" type="line"/>
      <point x="640" y="-256" type="line"/>
      <point x="384" y="-256" type="line"/>
      <point x="384" y="128" type="line"/>
    </contour>
  </outline>
</glyph>
<glyph name="uni251B" format="1">
  <advance width="1024"/>
  <unicode hex="251B"/>
  <outline>
    <contour>
      <point x="384" y="384" type="line"/>
      <point x="384" y="768" type="line"/>
      <point x="640" y="768" type="line"/>
      <point x="640" y="128" type="line"/>
      <point x="0" y="128" type="line"/>
      <point x="0" y="384" type="line"/>
    </contour>
  </outline>
</glyph>
<glyph name="uni251D" format="1">
  <advance width="1024"/>
  <unicode hex="251D"/>
  <outline>
    <contour>
      <point x="384" y="-256" type="line"/>
      <point x="384" y="768" type="line"/>
      <point x="512" y="768" type="line"/>
      <point x="512" y="384" type="line"/>
      <point x="1024" y="384" type="line"/>
      <point x="1024" y="128" type="line"/>
      <point x="512" y="128" type="line"/>
      <point x="512" y="-256" type="line"/>
    </contour>
  </outline>
</glyph>
<glyph name="uni2520" format="1">
  <advance width="1024"/>
  <unicode hex="2520"/>
  <outline>
    <contour>
      <point x="384" y="-256" type="line"/>
      <point x="384" y="768" type="line"/>
      <point x="640" y="768" type="line"/>
      <point x="640" y="384" type="line"/>
      <point x="1024" y="384" type="line"/>
      <point x="1024" y="256" type="line"/>
      <point x="640" y="256" type="line"/>
      <point x="640" y="-256" type="line"/>
    </contour>
  </outline>
</glyph>
<glyph name="uni2525" format="1">
  <advance width="1024"/>
  <unicode hex="2525"/>
  <outline>
    <contour>
      <point x="384" y="384" type="line"/>
      <point x="384" y="768" type="line"/>
      <point x="512" y="768" type="line"/>
      <point x="512" y="-256" type="line"/>
      <point x="384" y="-256" type="line"/>
      <point x="384" y="128" type="line"/>
      <point x="0" y="128" type="line"/>
      <point x="0" y="384" type="line"/>
    </contour>
  </outline>
</glyph>
<glyph name="uni2528" format="1">
  <advance width="1024"/>
  <unicode hex="2528"/>
  <outline>
    <contour>
      <point x="384" y="384" type="line"/>
      <point x="384" y="768" type="line"/>
      <point x="640" y="768" type="line"/>
      <point x="640" y="-256" type="line"/>
      <point x="384" y="-256" type="line"/>
      <point x="384" y="256" type="line"/>
      <point x="0" y="256" type="line"/>
      <point x="0" y="384" type="line"/>
    </contour>
  </outline>
</glyph>
<glyph name="uni252F" format="1">
  <advance width="1024"/>
  <unicode hex="252F"/>
  <outline>
    <contour>
      <point x="0" y="128" type="line"/>
      <point x="0" y="384" type="line"/>
      <point x="1024" y="384" type="line"/>
      <point x="1024" y="128" type="line"/>
      <point x="512" y="128" type="line"/>
      <point x="512" y="-256" type="line"/>
      <point x="384" y="-256" type="line"/>
      <point x="384" y="128" type="line"/>
    </contour>
  </outline>
</glyph>
<glyph name="uni2533" format="1">
  <advance width="1024"/>
  <unicode hex="2533"/>
  <outline>
    <contour>
      <point x="0" y="128" type="line"/>
      <point x="0" y="384" type="line"/>
      <point x="1024" y="384" type="line"/>
      <point x="1024" y="128" type="line"/>
      <point x="640" y="128" type="line"/>
      <point x="640" y="-256" type="line"/>
      <point x="384" y="-256" type="line"/>
      <point x="384" y="128" type="line"/>
    </contour>
  </outline>
</glyph>
<glyph name="SF070000" format="1">
  <advance width="1024"/>
  <unicode hex="2534"/>
  <outline>
    <contour>
      <point x="384" y="384" type="line"/>
      <point x="384" y="768" type="line"/>
      <point x="512" y="768" type="line"/>
      <point x="512" y="384" type="line"/>
      <point x="1024" y="384" type="line"/>
      <point x="1024" y="256" type="line"/>
      <point x="0" y="256" type="line"/>
      <point x="0" y="384" type="line"/>
    </contour>
  </outline>
</glyph>
<glyph name="uni2537" format="1">
  <advance width="1024"/>
  <unicode hex="2537"/>
  <outline>
    <contour>
      <point x="384" y="384" type="line"/>
      <point x="384" y="768" type="line"/>
      <point x="512" y="768" type="line"/>
      <point x="512" y="384" type="line"/>
      <point x="1024" y="384" type="line"/>
      <point x="1024" y="128" type="line"/>
      <point x="0" y="128" type="line"/>
      <point x="0" y="384" type="line"/>
    </contour>
  </outline>
</glyph>
<glyph name="uni253B" format="1">
  <advance width="1024"/>
  <unicode hex="253B"/>
  <outline>
    <contour>
      <point x="384" y="384" type="line"/>
      <point x="384" y="768" type="line"/>
      <point x="640" y="768" type="line"/>
      <point x="640" y="384" type="line"/>
      <point x="1024" y="384" type="line"/>
      <point x="1024" y="128" type="line"/>
      <point x="0" y="128" type="line"/>
      <point x="0" y="384" type="line"/>
    </contour>
  </outline>
</glyph>
<glyph name="SF050000" format="1">
  <advance width="1024"/>
  <unicode hex="253C"/>
  <outline>
    <contour>
      <point x="384" y="384" type="line"/>
      <point x="384" y="768" type="line"/>
      <point x="512" y="768" type="line"/>
      <point x="512" y="384" type="line"/>
      <point x="1024" y="384" type="line"/>
      <point x="1024" y="256" type="line"/>
      <point x="512" y="256" type="line"/>
      <point x="512" y="-256" type="line"/>
      <point x="384" y="-256" type="line"/>
      <point x="384" y="256" type="line"/>
      <point x="0" y="256" type="line"/>
      <point x="0" y="384" type="line"/>
    </contour>
  </outline>
</glyph>
<glyph name="filledbox" format="1">
  <advance width="1024"/>
  <unicode hex="25A0"/>
  <outline>
    <contour>
      <point x="0" y="-128" type="line"/>
      <point x="0" y="768" type="line"/>
      <point x="896" y="768" type="line"/>
      <point x="896" y="-128" type="line"/>
    </contour>
  </outline>
</glyph>
<glyph name="uni300C" format="1">
  <advance width="1024"/>
  <unicode hex="300C"/>
  <outline>
    <contour>
      <point x="384" y="0" type="line"/>
      <point x="384" y="768" type="line"/>
      <point x="896" y="768" type="line"/>
      <point x="896" y="640" type="line"/>
      <point x="512" y="640" type="line"/>
      <point x="512" y="0" type="line"/>
    </contour>
  </outline>
</glyph>
<glyph name="uni3010" format="1">
  <advance width="1024"/>
  <unicode hex="3010"/>
  <outline>
    <contour>
      <point x="512" y="-128" type="line"/>
      <point x="512" y="768" type="line"/>
      <point x="896" y="768" type="line"/>
      <point x="896" y="640" type="line"/>
      <point x="768" y="640" type="line"/>
      <point x="768" y="512" type="line"/>
      <point x="640" y="512" type="line"/>
      <point x="640" y="128" type="line"/>
      <point x="768" y="128" type="line"/>
      <point x="768" y="0" type="line"/>
      <point x="896" y="0" type="line"/>
      <point x="896" y="-128" type="line"/>
    </contour>
  </outline>
</glyph>
<glyph name="uni3011" format="1">
  <advance width="1024"/>
  <unicode hex="3011"/>
  <outline>
    <contour>
      <point x="0" y="640" type="line"/>
      <point x="0" y="768" type="line"/>
      <point x="384" y="768" type="line"/>
      <point x="384" y="-128" type="line"/>
      <point x="0" y="-128" type="line"/>
      <point x="0" y="0" type="line"/>
      <point x="128" y="0" type="line"/>
      <point x="128" y="128" type="line"/>
      <point x="256" y="128" type="line"/>
      <point x="256" y="512" type="line"/>
      <point x="128" y="512" type="line"/>
      <point x="128" y="640" type="line"/>
    </contour>
  </outline>
</glyph>
<glyph name="uni3012" format="1">
  <advance width="1024"/>
  <unicode hex="3012"/>
  <outline>
    <contour>
      <point x="0" y="640" type="line"/>
      <point x="0" y="768" type="line"/>
      <point x="896" y="768" type="line"/>
      <point x="896" y="640" type="line"/>
    </contour>
    <contour>
      <point x="0" y="384" type="line"/>
      <point x="0" y="512" type="line"/>
      <point x="896" y="512" type="line"/>
      <point x="896" y="384" type="line"/>
      <point x="512" y="384" type="line"/>
      <point x="512" y="-128" type="line"/>
      <point x="384" y="-128" type="line"/>
      <point x="384" y="384" type="line"/>
    </contour>
  </outline>
</glyph>
<glyph name="uni3013" format="1">
  <advance width="1024"/>
  <unicode hex="3013"/>
  <outline>
    <contour>
      <point x="0" y="384" type="line"/>
      <point x="0" y="640" type="line"/>
      <point x="896" y="640" type="line"/>
      <point x="896" y="384" type="line"/>
    </contour>
    <contour>
      <point x="0" y="0" type="line"/>
      <point x="0" y="256" type="line"/>
      <point x="896" y="256" type="line"/>
      <point x="896" y="0" type="line"/>
    </contour>
  </outline>
</glyph>
<glyph name="uni3014" format="1">
  <advance width="1024"/>
  <unicode hex="3014"/>
  <outline>
    <contour>
      <point x="640" y="640" type="line"/>
      <point x="640" y="768" type="line"/>
      <point x="896" y="768" type="line"/>
      <point x="896" y="640" type="line"/>
    </contour>
    <contour>
      <point x="384" y="0" type="line"/>
      <point x="384" y="640" type="line"/>
      <point x="640" y="640" type="line"/>
      <point x="640" y="512" type="line"/>
      <point x="512" y="512" type="line"/>
      <point x="512" y="128" type="line"/>
      <point x="640" y="128" type="line"/>
      <point x="640" y="0" type="line"/>
    </contour>
    <contour>
      <point x="640" y="0" type="line"/>
      <point x="896" y="0" type="line"/>
      <point x="896" y="-128" type="line"/>
      <point x="640" y="-128" type="line"/>
    </contour>
  </outline>
</glyph>
<glyph name="uni3057" format="1">
  <advance width="1024"/>
  <unicode hex="3057"/>
  <outline>
    <contour>
      <point x="256" y="0" type="line"/>
      <point x="256" y="768" type="line"/>
      <point x="384" y="768" type="line"/>
      <point x="384" y="0" type="line"/>
    </contour>
    <contour>
      <point x="768" y="0" type="line"/>
      <point x="768" y="128" type="line"/>
      <point x="896" y="128" type="line"/>
      <point x="896" y="0" type="line"/>
    </contour>
    <contour>
      <point x="768" y="0" type="line"/>
      <point x="768" y="-128" type="line"/>
      <point x="384" y="-128" type="line"/>
      <point x="384" y="0" type="line"/>
    </contour>
  </outline>
</glyph>
<glyph name="uni309B" format="1">
  <advance width="1024"/>
  <unicode hex="309B"/>
  <outline>
    <contour>
      <point x="0" y="640" type="line"/>
      <point x="0" y="768" type="line"/>
      <point x="128" y="768" type="line"/>
      <point x="128" y="640" type="line"/>
    </contour>
    <contour>
      <point x="256" y="640" type="line"/>
      <point x="256" y="768" type="line"/>
      <point x="384" y="768" type="line"/>
      <point x="384" y="640" type="line"/>
    </contour>
    <contour>
      <point x="256" y="640" type="line"/>
      <point x="256" y="512" type="line"/>
      <point x="128" y="512" type="line"/>
      <point x="128" y="640" type="line"/>
    </contour>
    <contour>
      <point x="384" y="640" type="line"/>
      <point x="512" y="640" type="line"/>
      <point x="512" y="512" type="line"/>
      <point x="384" y="512" type="line"/>
    </contour>
  </outline>
</glyph>
<glyph name="uni30A7" format="1">
  <advance width="1024"/>
  <unicode hex="30A7"/>
  <outline>
    <contour>
      <point x="256" y="256" type="line"/>
      <point x="256" y="384" type="line"/>
      <point x="640" y="384" type="line"/>
      <point x="640" y="256" type="line"/>
      <point x="512" y="256" type="line"/>
      <point x="512" y="0" type="line"/>
      <point x="768" y="0" type="line"/>
      <point x="768" y="-128" type="line"/>
      <point x="128" y="-128" type="line"/>
      <point x="128" y="0" type="line"/>
      <point x="384" y="0" type="line"/>
      <point x="384" y="256" type="line"/>
    </contour>
  </outline>
</glyph>
<glyph name="uni30AD" format="1">
  <advance width="1024"/>
  <unicode hex="30AD"/>
  <outline>
    <contour>
      <point x="384" y="640" type="line"/>
      <point x="384" y="768" type="line"/>
      <point x="512" y="768" type="line"/>
      <point x="512" y="640" type="line"/>
      <point x="768" y="640" type="line"/>
      <point x="768" y="512" type="line"/>
      <point x="512" y="512" type="line"/>
      <point x="512" y="256" type="line"/>
      <point x="896" y="256" type="line"/>
      <point x="896" y="128" type="line"/>
      <point x="640" y="128" type="line"/>
      <point x="640" y="-128" type="line"/>
      <point x="512" y="-128" type="line"/>
      <point x="512" y="128" type="line"/>
      <point x="128" y="128" type="line"/>
      <point x="128" y="256" type="line"/>
      <point x="384" y="256" type="line"/>
      <point x="384" y="512" type="line"/>
      <point x="128" y="512" type="line"/>
      <point x="128" y="640" type="line"/>
    </contour>
  </outline>
</glyph>
<glyph name="uni30B3" format="1">
  <advance width="1024"/>
  <unicode hex="30B3"/>
  <outline>
    <contour>
      <point x="128" y="512" type="line"/>
      <point x="128" y="640" type="line"/>
      <point x="896" y="640" type="line"/>
      <point x="896" y="-128" type="line"/>
      <point x="128" y="-128" type="line"/>
      <point x="128" y="0" type="line"/>
      <point x="768" y="0" type="line"/>
      <point x="768" y="512" type="line"/>
    </contour>
  </outline>
</glyph>
<glyph name="uni30B4" format="1">
  <advance width="1024"/>
  <unicode hex="30B4"/>
  <outline>
    <contour>
      <point x="512" y="640" type="line"/>
      <point x="512" y="768" type="line"/>
      <point x="640" y="768" type="line"/>
      <point x="640" y="640" type="line"/>
      <point x="768" y="640" type="line"/>
      <point x="768" y="768" type="line"/>
      <point x="896" y="768" type="line"/>
      <point x="896" y="-128" type="line"/>
      <point x="128" y="-128" type="line"/>
      <point x="128" y="0" type="line"/>
      <point x="768" y="0" type="line"/>
      <point x="768" y="512" type="line"/>
      <point x="128" y="512" type="line"/>
      <point x="128" y="640" type="line"/>
    </contour>
  </outline>
</glyph>
<glyph name="uni30CB" format="1">
  <advance width="1024"/>
  <unicode hex="30CB"/>
  <outline>
    <contour>
      <point x="128" y="512" type="line"/>
      <point x="128" y="640" type="line"/>
      <point x="768" y="640" type="line"/>
      <point x="768" y="512" type="line"/>
    </contour>
    <contour>
      <point x="0" y="0" type="line"/>
      <point x="0" y="128" type="line"/>
      <point x="896" y="128" type="line"/>
      <point x="896" y="0" type="line"/>
    </contour>
  </outline>
</glyph>
<glyph name="uni30E5" format="1">
  <advance width="1024"/>
  <unicode hex="30E5"/>
  <outline>
    <contour>
      <point x="256" y="256" type="line"/>
      <point x="256" y="384" type="line"/>
      <point x="640" y="384" type="line"/>
      <point x="640" y="0" type="line"/>
      <point x="768" y="0" type="line"/>
      <point x="768" y="-128" type="line"/>
      <point x="128" y="-128" type="line"/>
      <point x="128" y="0" type="line"/>
      <point x="512" y="0" type="line"/>
      <point x="512" y="256" type="line"/>
    </contour>
  </outline>
</glyph>
<glyph name="uni30F6" format="1">
  <advance width="1024"/>
  <unicode hex="30F6"/>
  <outline>
    <contour>
      <point x="256" y="256" type="line"/>
      <point x="256" y="512" type="line"/>
      <point x="384" y="512" type="line"/>
      <point x="384" y="384" type="line"/>
      <point x="768" y="384" type="line"/>
      <point x="768" y="256" type="line"/>
      <point x="640" y="256" type="line"/>
      <point x="640" y="0" type="line"/>
      <point x="512" y="0" type="line"/>
      <point x="512" y="256" type="line"/>
    </contour>
    <contour>
      <point x="128" y="128" type="line"/>
      <point x="128" y="256" type="line"/>
      <point x="256" y="256" type="line"/>
      <point x="256" y="128" type="line"/>
    </contour>
    <contour>
      <point x="384" y="-128" type="line"/>
      <point x="384" y="0" type="line"/>
      <point x="512" y="0" type="line"/>
      <point x="512" y="-128" type="line"/>
    </contour>
  </outline>
</glyph>
<glyph name="uni30FB" format="1">
  <advance width="1024"/>
  <unicode hex="30FB"/>
  <outline>
    <contour>
      <point x="256" y="128" type="line"/>
      <point x="256" y="384" type="line"/>
      <point x="512" y="384" type="line"/>
      <point x="512" y="128" type="line"/>
    </contour>
  </outline>
</glyph>
<glyph name="uni3327" format="1">
  <advance width="1024"/>
  <unicode hex="3327"/>
  <outline>
    <contour>
      <point x="0" y="256" type="line"/>
      <point x="0" y="768" type="line"/>
      <point x="128" y="768" type="line"/>
      <point x="128" y="512" type="line"/>
      <point x="384" y="512" type="line"/>
      <point x="384" y="384" type="line"/>
      <point x="128" y="384" type="line"/>
      <point x="128" y="256" type="line"/>
    </contour>
    <contour>
      <point x="512" y="256" type="line"/>
      <point x="512" y="384" type="line"/>
      <point x="768" y="384" type="line"/>
      <point x="768" y="256" type="line"/>
    </contour>
    <contour>
      <point x="768" y="0" type="line"/>
      <point x="768" y="128" type="line"/>
      <point x="896" y="128" type="line"/>
      <point x="896" y="0" type="line"/>
    </contour>
    <contour>
      <point x="512" y="-128" type="line"/>
      <point x="512" y="0" type="line"/>
      <point x="768" y="0" type="line"/>
      <point x="768" y="-128" type="line"/>
    </contour>
  </outline>
</glyph>
<glyph name="uni4E00" format="1">
  <advance width="1024"/>
  <unicode hex="4E00"/>
  <outline>
    <contour>
      <point x="640" y="384" type="line"/>
      <point x="640" y="512" type="line"/>
      <point x="768" y="512" type="line"/>
      <point x="768" y="384" type="line"/>
      <point x="896" y="384" type="line"/>
      <point x="896" y="256" type="line"/>
      <point x="0" y="256" type="line"/>
      <point x="0" y="384" type="line"/>
    </contour>
  </outline>
</glyph>
<glyph name="uni4E01" format="1">
  <advance width="1024"/>
  <unicode hex="4E01"/>
  <outline>
    <contour>
      <point x="0" y="640" type="line"/>
      <point x="0" y="768" type="line"/>
      <point x="896" y="768" type="line"/>
      <point x="896" y="640" type="line"/>
      <point x="512" y="640" type="line"/>
      <point x="512" y="-128" type="line"/>
      <point x="256" y="-128" type="line"/>
      <point x="256" y="0" type="line"/>
      <point x="384" y="0" type="line"/>
      <point x="384" y="640" type="line"/>
    </contour>
  </outline>
</glyph>
<glyph name="uni4E36" format="1">
  <advance width="1024"/>
  <unicode hex="4E36"/>
  <outline>
    <contour>
      <point x="256" y="512" type="line"/>
      <point x="256" y="640" type="line"/>
      <point x="384" y="640" type="line"/>
      <point x="384" y="512" type="line"/>
    </contour>
    <contour>
      <point x="384" y="512" type="line"/>
      <point x="512" y="512" type="line"/>
      <point x="512" y="384" type="line"/>
      <point x="384" y="384" type="line"/>
    </contour>
    <contour>
      <point x="512" y="384" type="line"/>
      <point x="640" y="384" type="line"/>
      <point x="640" y="128" type="line"/>
      <point x="512" y="128" type="line"/>
    </contour>
  </outline>
</glyph>
<glyph name="uni4E85" format="1">
  <advance width="1024"/>
  <unicode hex="4E85"/>
  <outline>
    <contour>
      <point x="384" y="0" type="line"/>
      <point x="384" y="768" type="line"/>
      <point x="512" y="768" type="line"/>
      <point x="512" y="-128" type="line"/>
      <point x="256" y="-128" type="line"/>
      <point x="256" y="0" type="line"/>
    </contour>
  </outline>
</glyph>
<glyph name="uni4EA0" format="1">
  <advance width="1024"/>
  <unicode hex="4EA0"/>
  <outline>
    <contour>
      <point x="384" y="384" type="line"/>
      <point x="384" y="640" type="line"/>
      <point x="512" y="640" type="line"/>
      <point x="512" y="384" type="line"/>
      <point x="896" y="384" type="line"/>
      <point x="896" y="256" type="line"/>
      <point x="0" y="256" type="line"/>
      <point x="0" y="384" type="line"/>
    </contour>
  </outline>
</glyph>
<glyph name="uni4EA1" format="1">
  <advance width="1024"/>
  <unicode hex="4EA1"/>
  <outline>
    <contour>
      <point x="384" y="640" type="line"/>
      <point x="384" y="768" type="line"/>
      <point x="512" y="768" type="line"/>
      <point x="512" y="640" type="line"/>
      <point x="896" y="640" type="line"/>
      <point x="896" y="512" type="line"/>
      <point x="256" y="512" type="line"/>
      <point x="256" y="0" type="line"/>
      <point x="128" y="0" type="line"/>
      <point x="128" y="512" type="line"/>
      <point x="0" y="512" type="line"/>
      <point x="0" y="640" type="line"/>
    </contour>
    <contour>
      <point x="256" y="0" type="line"/>
      <point x="896" y="0" type="line"/>
      <point x="896" y="-128" type="line"/>
      <point x="256" y="-128" type="line"/>
    </contour>
  </outline>
</glyph>
<glyph name="uni4EC4" format="1">
  <advance width="1024"/>
  <unicode hex="4EC4"/>
  <outline>
    <contour>
      <point x="128" y="0" type="line"/>
      <point x="128" y="768" type="line"/>
      <point x="896" y="768" type="line"/>
      <point x="896" y="640" type="line"/>
      <point x="640" y="640" type="line"/>
      <point x="640" y="128" type="line"/>
      <point x="512" y="128" type="line"/>
      <point x="512" y="640" type="line"/>
      <point x="256" y="640" type="line"/>
      <point x="256" y="0" type="line"/>
    </contour>
    <contour>
      <point x="384" y="0" type="line"/>
      <point x="384" y="128" type="line"/>
      <point x="512" y="128" type="line"/>
      <point x="512" y="0" type="line"/>
    </contour>
    <contour>
      <point x="0" y="-128" type="line"/>
      <point x="0" y="0" type="line"/>
      <point x="128" y="0" type="line"/>
      <point x="128" y="-128" type="line"/>
    </contour>
    <contour>
      <point x="640" y="128" type="line"/>
      <point x="768" y="128" type="line"/>
      <point x="768" y="0" type="line"/>
      <point x="640" y="0" type="line"/>
    </contour>
    <contour>
      <point x="384" y="0" type="line"/>
      <point x="384" y="-128" type="line"/>
      <point x="256" y="-128" type="line"/>
      <point x="256" y="0" type="line"/>
    </contour>
    <contour>
      <point x="768" y="0" type="line"/>
      <point x="896" y="0" type="line"/>
      <point x="896" y="-128" type="line"/>
      <point x="768" y="-128" type="line"/>
    </contour>
  </outline>
</glyph>
<glyph name="uni51F5" format="1">
  <advance width="1024"/>
  <unicode hex="51F5"/>
  <outline>
    <contour>
      <point x="0" y="-128" type="line"/>
      <point x="0" y="768" type="line"/>
      <point x="128" y="768" type="line"/>
      <point x="128" y="0" type="line"/>
      <point x="768" y="0" type="line"/>
      <point x="768" y="768" type="line"/>
      <point x="896" y="768" type="line"/>
      <point x="896" y="-128" type="line"/>
    </contour>
  </outline>
</glyph>
<glyph name="uni531A" format="1">
  <advance width="1024"/>
  <unicode hex="531A"/>
  <outline>
    <contour>
      <point x="0" y="-128" type="line"/>
      <point x="0" y="768" type="line"/>
      <point x="896" y="768" type="line"/>
      <point x="896" y="640" type="line"/>
      <point x="128" y="640" type="line"/>
      <point x="128" y="0" type="line"/>
      <point x="896" y="0" type="line"/>
      <point x="896" y="-128" type="line"/>
    </contour>
  </outline>
</glyph>
<glyph name="uni56D7" format="1">
  <advance width="1024"/>
  <unicode hex="56D7"/>
  <outline>
    <contour>
      <point x="768" y="0" type="line"/>
      <point x="768" y="640" type="line"/>
      <point x="128" y="640" type="line"/>
      <point x="128" y="0" type="line"/>
    </contour>
    <contour>
      <point x="0" y="-128" type="line"/>
      <point x="0" y="768" type="line"/>
      <point x="896" y="768" type="line"/>
      <point x="896" y="-128" type="line"/>
    </contour>
  </outline>
</glyph>
<glyph name="uni6ADA" format="1">
  <advance width="1024"/>
  <unicode hex="6ADA"/>
  <outline>
    <contour>
      <point x="768" y="0" type="line"/>
      <point x="768" y="128" type="line"/>
      <point x="512" y="128" type="line"/>
      <point x="512" y="0" type="line"/>
    </contour>
    <contour>
      <point x="768" y="256" type="line"/>
      <point x="768" y="384" type="line"/>
      <point x="640" y="384" type="line"/>
      <point x="640" y="256" type="line"/>
    </contour>
    <contour>
      <point x="128" y="640" type="line"/>
      <point x="128" y="768" type="line"/>
      <point x="512" y="768" type="line"/>
      <point x="512" y="512" type="line"/>
      <point x="640" y="512" type="line"/>
      <point x="640" y="768" type="line"/>
      <point x="896" y="768" type="line"/>
      <point x="896" y="-128" type="line"/>
      <point x="128" y="-128" type="line"/>
      <point x="128" y="128" type="line"/>
      <point x="0" y="128" type="line"/>
      <point x="0" y="384" type="line"/>
      <point x="128" y="384" type="line"/>
      <point x="128" y="512" type="line"/>
      <point x="0" y="512" type="line"/>
      <point x="0" y="640" type="line"/>
    </contour>
    <contour>
      <point x="512" y="512" type="line"/>
      <point x="384" y="512" type="line"/>
      <point x="384" y="256" type="line"/>
      <point x="512" y="256" type="line"/>
    </contour>
  </outline>
</glyph>
<glyph name="uni6EA2" format="1">
  <advance width="1024"/>
  <unicode hex="6EA2"/>
  <outline>
    <contour>
      <point x="0" y="640" type="line"/>
      <point x="0" y="768" type="line"/>
      <point x="128" y="768" type="line"/>
      <point x="128" y="640" type="line"/>
    </contour>
    <contour>
      <point x="384" y="640" type="line"/>
      <point x="384" y="768" type="line"/>
      <point x="512" y="768" type="line"/>
      <point x="512" y="640" type="line"/>
      <point x="640" y="640" type="line"/>
      <point x="640" y="768" type="line"/>
      <point x="768" y="768" type="line"/>
      <point x="768" y="640" type="line"/>
      <point x="896" y="640" type="line"/>
      <point x="896" y="512" type="line"/>
      <point x="768" y="512" type="line"/>
      <point x="768" y="384" type="line"/>
      <point x="640" y="384" type="line"/>
      <point x="640" y="512" type="line"/>
      <point x="512" y="512" type="line"/>
      <point x="512" y="384" type="line"/>
      <point x="384" y="384" type="line"/>
      <point x="384" y="512" type="line"/>
      <point x="256" y="512" type="line"/>
      <point x="256" y="640" type="line"/>
    </contour>
    <contour>
      <point x="0" y="384" type="line"/>
      <point x="0" y="512" type="line"/>
      <point x="128" y="512" type="line"/>
      <point x="128" y="384" type="line"/>
    </contour>
    <contour>
      <point x="256" y="256" type="line"/>
      <point x="256" y="384" type="line"/>
      <point x="384" y="384" type="line"/>
      <point x="384" y="256" type="line"/>
    </contour>
    <contour>
      <point x="0" y="-128" type="line"/>
      <point x="0" y="256" type="line"/>
      <point x="128" y="256" type="line"/>
      <point x="128" y="-128" type="line"/>
    </contour>
    <contour>
      <point x="768" y="384" type="line"/>
      <point x="896" y="384" type="line"/>
      <point x="896" y="256" type="line"/>
      <point x="768" y="256" type="line"/>
    </contour>
    <contour>
      <point x="768" y="256" type="line"/>
      <point x="768" y="0" type="line"/>
      <point x="896" y="0" type="line"/>
      <point x="896" y="-128" type="line"/>
      <point x="256" y="-128" type="line"/>
      <point x="256" y="0" type="line"/>
      <point x="384" y="0" type="line"/>
      <point x="384" y="256" type="line"/>
    </contour>
  </outline>
</glyph>
<glyph name="uni738B" format="1">
  <advance width="1024"/>
  <unicode hex="738B"/>
  <outline>
    <contour>
      <point x="0" y="640" type="line"/>
      <point x="0" y="768" type="line"/>
      <point x="896" y="768" type="line"/>
      <point x="896" y="640" type="line"/>
      <point x="512" y="640" type="line"/>
      <point x="512" y="384" type="line"/>
      <point x="768" y="384" type="line"/>
      <point x="768" y="256" type="line"/>
      <point x="512" y="256" type="line"/>
      <point x="512" y="0" type="line"/>
      <point x="896" y="0" type="line"/>
      <point x="896" y="-128" type="line"/>
      <point x="0" y="-128" type="line"/>
      <point x="0" y="0" type="line"/>
      <point x="384" y="0" type="line"/>
      <point x="384" y="256" type="line"/>
      <point x="128" y="256" type="line"/>
      <point x="128" y="384" type="line"/>
      <point x="384" y="384" type="line"/>
      <point x="384" y="640" type="line"/>
    </contour>
  </outline>
</glyph>
<glyph name="uni7476" format="1">
  <advance width="1024"/>
  <unicode hex="7476"/>
  <outline>
    <contour>
      <point x="512" y="0" type="line"/>
      <point x="512" y="256" type="line"/>
      <point x="256" y="256" type="line"/>
      <point x="256" y="128" type="line"/>
      <point x="384" y="128" type="line"/>
      <point x="384" y="0" type="line"/>
    </contour>
    <contour>
      <point x="0" y="640" type="line"/>
      <point x="0" y="768" type="line"/>
      <point x="384" y="768" type="line"/>
      <point x="384" y="640" type="line"/>
      <point x="640" y="640" type="line"/>
      <point x="640" y="384" type="line"/>
      <point x="896" y="384" type="line"/>
      <point x="896" y="256" type="line"/>
      <point x="640" y="256" type="line"/>
      <point x="640" y="0" type="line"/>
      <point x="768" y="0" type="line"/>
      <point x="768" y="128" type="line"/>
      <point x="896" y="128" type="line"/>
      <point x="896" y="-128" type="line"/>
      <point x="256" y="-128" type="line"/>
      <point x="256" y="0" type="line"/>
      <point x="0" y="0" type="line"/>
      <point x="0" y="128" type="line"/>
      <point x="128" y="128" type="line"/>
      <point x="128" y="256" type="line"/>
      <point x="0" y="256" type="line"/>
      <point x="0" y="384" type="line"/>
      <point x="128" y="384" type="line"/>
      <point x="128" y="640" type="line"/>
    </contour>
    <contour>
      <point x="640" y="640" type="line"/>
      <point x="640" y="768" type="line"/>
      <point x="896" y="768" type="line"/>
      <point x="896" y="512" type="line"/>
      <point x="768" y="512" type="line"/>
      <point x="768" y="640" type="line"/>
    </contour>
    <contour>
      <point x="384" y="640" type="line"/>
      <point x="256" y="640" type="line"/>
      <point x="256" y="384" type="line"/>
      <point x="512" y="384" type="line"/>
      <point x="512" y="512" type="line"/>
      <point x="384" y="512" type="line"/>
    </contour>
  </outline>
</glyph>
<glyph name="uniFF01" format="1">
  <advance width="1024"/>
  <unicode hex="FF01"/>
  <outline>
    <contour>
      <point x="384" y="128" type="line"/>
      <point x="384" y="768" type="line"/>
      <point x="512" y="768" type="line"/>
      <point x="512" y="128" type="line"/>
    </contour>
    <contour>
      <point x="384" y="-128" type="line"/>
      <point x="384" y="0" type="line"/>
      <point x="512" y="0" type="line"/>
      <point x="512" y="-128" type="line"/>
    </contour>
  </outline>
</glyph>
<glyph name="uniFF08" format="1">
  <advance width="1024"/>
  <unicode hex="FF08"/>
  <outline>
    <contour>
      <point x="768" y="640" type="line"/>
      <point x="768" y="768" type="line"/>
      <point x="896" y="768" type="line"/>
      <point x="896" y="640" type="line"/>
    </contour>
    <contour>
      <point x="640" y="512" type="line"/>
      <point x="640" y="640" type="line"/>
      <point x="768" y="640" type="line"/>
      <point x="768" y="512" type="line"/>
    </contour>
    <contour>
      <point x="512" y="128" type="line"/>
      <point x="512" y="512" type="line"/>
      <point x="640" y="512" type="line"/>
      <point x="640" y="128" type="line"/>
    </contour>
    <contour>
      <point x="640" y="128" type="line"/>
      <point x="768" y="128" type="line"/>
      <point x="768" y="0" type="line"/>
      <point x="640" y="0" type="line"/>
    </contour>
    <contour>
      <point x="768" y="0" type="line"/>
      <point x="896" y="0" type="line"/>
      <point x="896" y="-128" type="line"/>
      <point x="768" y="-128" type="line"/>
    </contour>
  </outline>
</glyph>
<glyph name="uniFF0C" format="1">
  <advance width="1024"/>
  <unicode hex="FF0C"/>
  <outline>
    <contour>
      <point x="0" y="128" type="line"/>
      <point x="0" y="256" type="line"/>
      <point x="256" y="256" type="line"/>
      <point x="256" y="0" type="line"/>
      <point x="128" y="0" type="line"/>
      <point x="128" y="128" type="line"/>
    </contour>
    <contour>
      <point x="0" y="-128" type="line"/>
      <point x="0" y="0" type="line"/>
      <point x="128" y="0" type="line"/>
      <point x="128" y="-128" type="line"/>
    </contour>
  </outline>
</glyph>
<glyph name="uniFF0D" format="1">
  <advance width="1024"/>
  <unicode hex="FF0D"/>
  <outline>
    <contour>
      <point x="0" y="256" type="line"/>
      <point x="0" y="384" type="line"/>
      <point x="896" y="384" type="line"/>
      <point x="896" y="256" type="line"/>
    </contour>
  </outline>
</glyph>
<glyph name="uniFF0E" format="1">
  <advance width="1024"/>
  <unicode hex="FF0E"/>
  <outline>
    <contour>
      <point x="0" y="-128" type="line"/>
      <point x="0" y="128" type="line"/>
      <point x="256" y="128" type="line"/>
      <point x="256" y="-128" type="line"/>
    </contour>
  </outline>
</glyph>
<glyph name="uniFF1C" format="1">
  <advance width="1024"/>
  <unicode hex="FF1C"/>
  <outline>
    <contour>
      <point x="640" y="512" type="line"/>
      <point x="640" y="640" type="line"/>
      <point x="896" y="640" type="line"/>
      <point x="896" y="512" type="line"/>
    </contour>
    <contour>
      <point x="256" y="384" type="line"/>
      <point x="256" y="512" type="line"/>
      <point x="640" y="512" type="line"/>
      <point x="640" y="384" type="line"/>
    </contour>
    <contour>
      <point x="0" y="256" type="line"/>
      <point x="0" y="384" type="line"/>
      <point x="256" y="384" type="line"/>
      <point x="256" y="256" type="line"/>
    </contour>
    <contour>
      <point x="256" y="256" type="line"/>
      <point x="640" y="256" type="line"/>
      <point x="640" y="128" type="line"/>
      <point x="256" y="128" type="line"/>
    </contour>
    <contour>
      <point x="640" y="128" type="line"/>
      <point x="896" y="128" type="line"/>
      <point x="896" y="0" type="line"/>
      <point x="640" y="0" type="line"/>
    </contour>
  </outline>
</glyph>
<glyph name="uniFF2C" format="1">
  <advance width="1024"/>
  <unicode hex="FF2C"/>
  <outline>
    <contour>
      <point x="128" y="-128" type="line"/>
      <point x="128" y="768" type="line"/>
      <point x="256" y="768" type="line"/>
      <point x="256" y="0" type="line"/>
      <point x="896" y="0" type="line"/>
      <point x="896" y="-128" type="line"/>
    </contour>
  </outline>
</glyph>
<glyph name="uniFF35" format="1">
  <advance width="1024"/>
  <unicode hex="FF35"/>
  <outline>
    <contour>
      <point x="128" y="0" type="line"/>
      <point x="128" y="768" type="line"/>
      <point x="256" y="768" type="line"/>
      <point x="256" y="0" type="line"/>
    </contour>
    <contour>
      <point x="768" y="0" type="line"/>
      <point x="768" y="768" type="line"/>
      <point x="896" y="768" type="line"/>
      <point x="896" y="0" type="line"/>
    </contour>
    <contour>
      <point x="768" y="0" type="line"/>
      <point x="768" y="-128" type="line"/>
      <point x="256" y="-128" type="line"/>
      <point x="256" y="0" type="line"/>
    </contour>
  </outline>
</glyph>
<glyph name="uniFF3B" format="1">
  <advance width="1024"/>
  <unicode hex="FF3B"/>
  <outline>
    <contour>
      <point x="512" y="-128" type="line"/>
      <point x="512" y="768" type="line"/>
      <point x="896" y="768" type="line"/>
      <point x="896" y="640" type="line"/>
      <point x="640" y="640" type="line"/>
      <point x="640" y="0" type="line"/>
      <point x="896" y="0" type="line"/>
      <point x="896" y="-128" type="line"/>
    </contour>
  </outline>
</glyph>
<glyph name="uniFF3D" format="1">
  <advance width="1024"/>
  <unicode hex="FF3D"/>
  <outline>
    <contour>
      <point x="0" y="640" type="line"/>
      <point x="0" y="768" type="line"/>
      <point x="384" y="768" type="line"/>
      <point x="384" y="-128" type="line"/>
      <point x="0" y="-128" type="line"/>
      <point x="0" y="0" type="line"/>
      <point x="256" y="0" type="line"/>
      <point x="256" y="640" type="line"/>
    </contour>
  </outline>
</glyph>
<glyph name="uniFF3E" format="1">
  <advance width="1024"/>
  <unicode hex="FF3E"/>
  <outline>
    <contour>
      <point x="384" y="640" type="line"/>
      <point x="384" y="768" type="line"/>
      <point x="512" y="768" type="line"/>
      <point x="512" y="640" type="line"/>
    </contour>
    <contour>
      <point x="256" y="512" type="line"/>
      <point x="256" y="640" type="line"/>
      <point x="384" y="640" type="line"/>
      <point x="384" y="512" type="line"/>
    </contour>
    <contour>
      <point x="512" y="640" type="line"/>
      <point x="640" y="640" type="line"/>
      <point x="640" y="512" type="line"/>
      <point x="512" y="512" type="line"/>
    </contour>
  </outline>
</glyph>
<glyph name="uniFF3F" format="1">
  <advance width="1024"/>
  <unicode hex="FF3F"/>
  <outline>
    <contour>
      <point x="0" y="-128" type="line"/>
      <point x="0" y="0" type="line"/>
      <point x="896" y="0" type="line"/>
      <point x="896" y="-128" type="line"/>
    </contour>
  </outline>
</glyph>
<glyph name="uniFF40" format="1">
  <advance width="1024"/>
  <unicode hex="FF40"/>
  <outline>
    <contour>
      <point x="256" y="640" type="line"/>
      <point x="256" y="768" type="line"/>
      <point x="384" y="768" type="line"/>
      <point x="384" y="640" type="line"/>
    </contour>
    <contour>
      <point x="384" y="640" type="line"/>
      <point x="512" y="640" type="line"/>
      <point x="512" y="512" type="line"/>
      <point x="384" y="512" type="line"/>
    </contour>
  </outline>
</glyph>
<glyph name="uniFF46" format="1">
  <advance width="1024"/>
  <unicode hex="FF46"/>
  <outline>
    <contour>
      <point x="512" y="640" type="line"/>
      <point x="512" y="768" type="line"/>
      <point x="768" y="768" type="line"/>
      <point x="768" y="640" type="line"/>
    </contour>
    <contour>
      <point x="384" y="512" type="line"/>
      <point x="384" y="640" type="line"/>
      <point x="512" y="640" type="line"/>
      <point x="512" y="512" type="line"/>
      <point x="640" y="512" type="line"/>
      <point x="640" y="384" type="line"/>
      <point x="512" y="384" type="line"/>
      <point x="512" y="-128" type="line"/>
      <point x="384" y="-128" type="line"/>
      <point x="384" y="384" type="line"/>
      <point x="256" y="384" type="line"/>
      <point x="256" y="512" type="line"/>
    </contour>
  </outline>
</glyph>
<glyph name="uniFF4C" format="1">
  <advance width="1024"/>
  <unicode hex="FF4C"/>
  <outline>
    <contour>
      <point x="256" y="640" type="line"/>
      <point x="256" y="768" type="line"/>
      <point x="512" y="768" type="line"/>
      <point x="512" y="-128" type="line"/>
      <point x="384" y="-128" type="line"/>
      <point x="384" y="640" type="line"/>
    </contour>
  </outline>
</glyph>
<glyph name="uniFF5B" format="1">
  <advance width="1024"/>
  <unicode hex="FF5B"/>
  <outline>
    <contour>
      <point x="640" y="640" type="line"/>
      <point x="640" y="768" type="line"/>
      <point x="896" y="768" type="line"/>
      <point x="896" y="640" type="line"/>
    </contour>
    <contour>
      <point x="512" y="384" type="line"/>
      <point x="512" y="640" type="line"/>
      <point x="640" y="640" type="line"/>
      <point x="640" y="384" type="line"/>
    </contour>
    <contour>
      <point x="384" y="256" type="line"/>
      <point x="384" y="384" type="line"/>
      <point x="512" y="384" type="line"/>
      <point x="512" y="256" type="line"/>
    </contour>
    <contour>
      <point x="512" y="256" type="line"/>
      <point x="640" y="256" type="line"/>
      <point x="640" y="0" type="line"/>
      <point x="512" y="0" type="line"/>
    </contour>
    <contour>
      <point x="640" y="0" type="line"/>
      <point x="896" y="0" type="line"/>
      <point x="896" y="-128" type="line"/>
      <point x="640" y="-128" type="line"/>
    </contour>
  </outline>
</glyph>
<glyph name="uniFF5C" format="1">
  <advance width="1024"/>
  <unicode hex="FF5C"/>
  <outline>
    <contour>
      <point x="384" y="-128" type="line"/>
      <point x="384" y="768" type="line"/>
      <point x="512" y="768" type="line"/>
      <point x="512" y="-128" type="line"/>
    </contour>
  </outline>
</glyph>
<glyph name="uniFF5D" format="1">
  <advance width="1024"/>
  <unicode hex="FF5D"/>
  <outline>
    <contour>
      <point x="0" y="640" type="line"/>
      <point x="0" y="768" type="line"/>
      <point x="256" y="768" type="line"/>
      <point x="256" y="640" type="line"/>
    </contour>
    <contour>
      <point x="256" y="0" type="line"/>
      <point x="256" y="256" type="line"/>
      <point x="384" y="256" type="line"/>
      <point x="384" y="384" type="line"/>
      <point x="256" y="384" type="line"/>
      <point x="256" y="640" type="line"/>
      <point x="384" y="640" type="line"/>
      <point x="384" y="384" type="line"/>
      <point x="512" y="384" type="line"/>
      <point x="512" y="256" type="line"/>
      <point x="384" y="256" type="line"/>
      <point x="384" y="0" type="line"/>
    </contour>
    <contour>
      <point x="0" y="-128" type="line"/>
      <point x="0" y="0" type="line"/>
      <point x="256" y="0" type="line"/>
      <point x="256" y="-128" type="line"/>
    </contour>
  </outline>
</glyph>
<glyph name="uniFF62" format="1">
  <advance width="512"/>
  <unicode hex="FF62"/>
  <outline>
    <contour>
      <point x="0" y="128" type="line"/>
      <point x="0" y="768" type="line"/>
      <point x="384" y="768" type="line"/>
      <point x="384" y="640" type="line"/>
      <point x="128" y="640" type="line"/>
      <point x="128" y="128" type="line"/>
    </contour>
  </outline>
</glyph>
<glyph name="uniFF63" format="1">
  <advance width="512"/>
  <unicode hex="FF63"/>
  <outline>
    <contour>
      <point x="256" y="128" type="line"/>
      <point x="256" y="640" type="line"/>
      <point x="384" y="640" type="line"/>
      <point x="384" y="0" type="line"/>
      <point x="0" y="0" type="line"/>
      <point x="0" y="128" type="line"/>
    </contour>
  </outline>
</glyph>
<glyph name="uniFF65" format="1">
  <advance width="512"/>
  <unicode hex="FF65"/>
  <outline>
    <contour>
      <point x="128" y="256" type="line"/>
      <point x="128" y="384" type="line"/>
      <point x="256" y="384" type="line"/>
      <point x="256" y="256" type="line"/>
    </contour>
  </outline>
</glyph>
<glyph name="uniFF7A" format="1">
  <advance width="512"/>
  <unicode hex="FF7A"/>
  <outline>
    <contour>
      <point x="0" y="512" type="line"/>
      <point x="0" y="640" type="line"/>
      <point x="384" y="640" type="line"/>
      <point x="384" y="0" type="line"/>
      <point x="0" y="0" type="line"/>
      <point x="0" y="128" type="line"/>
      <point x="256" y="128" type="line"/>
      <point x="256" y="512" type="line"/>
    </contour>
  </outline>
</glyph>
<glyph name="uniFF7E" format="1">
  <advance width="512"/>
  <unicode hex="FF7E"/>
  <outline>
    <contour>
      <point x="0" y="0" type="line"/>
      <point x="0" y="768" type="line"/>
      <point x="128" y="768" type="line"/>
      <point x="128" y="640" type="line"/>
      <point x="384" y="640" type="line"/>
      <point x="384" y="256" type="line"/>
      <point x="256" y="256" type="line"/>
      <point x="256" y="512" type="line"/>
      <point x="128" y="512" type="line"/>
      <point x="128" y="128" type="line"/>
      <point x="384" y="128" type="line"/>
      <point x="384" y="0" type="line"/>
    </contour>
  </outline>
</glyph>
<glyph name="uniFF90" format="1">
  <advance width="512"/>
  <unicode hex="FF90"/>
  <outline>
    <contour>
      <point x="0" y="512" type="line"/>
      <point x="0" y="640" type="line"/>
      <point x="384" y="640" type="line"/>
      <point x="384" y="512" type="line"/>
    </contour>
    <contour>
      <point x="128" y="256" type="line"/>
      <point x="128" y="384" type="line"/>
      <point x="384" y="384" type="line"/>
      <point x="384" y="256" type="line"/>
    </contour>
    <contour>
      <point x="0" y="0" type="line"/>
      <point x="0" y="128" type="line"/>
      <point x="384" y="128" type="line"/>
      <point x="384" y="0" type="line"/>
    </contour>
  </outline>
</glyph>
<glyph name="uniFF94" format="1">
  <advance width="512"/>
  <unicode hex="FF94"/>
  <outline>
    <contour>
      <point x="128" y="640" type="line"/>
      <point x="128" y="768" type="line"/>
      <point x="256" y="768" type="line"/>
      <point x="256" y="640" type="line"/>
      <point x="384" y="640" type="line"/>
      <point x="384" y="256" type="line"/>
      <point x="256" y="256" type="line"/>
      <point x="256" y="0" type="line"/>
      <point x="128" y="0" type="line"/>
      <point x="128" y="512" type="line"/>
      <point x="0" y="512" type="line"/>
      <point x="0" y="640" type="line"/>
    </contour>
  </outline>
</glyph>
<glyph name="uniFF96" format="1">
  <advance width="512"/>
  <unicode hex="FF96"/>
  <outline>
    <contour>
      <point x="0" y="640" type="line"/>
      <point x="0" y="768" type="line"/>
      <point x="384" y="768" type="line"/>
      <point x="384" y="0" type="line"/>
      <point x="0" y="0" type="line"/>
      <point x="0" y="128" type="line"/>
      <point x="256" y="128" type="line"/>
      <point x="256" y="384" type="line"/>
      <point x="0" y="384" type="line"/>
      <point x="0" y="512" type="line"/>
      <point x="256" y="512" type="line"/>
      <point x="256" y="640" type="line"/>
    </contour>
  </outline>
</glyph>
<glyph name="uniFF98" format="1">
  <advance width="512"/>
  <unicode hex="FF98"/>
  <outline>
    <contour>
      <point x="0" y="384" type="line"/>
      <point x="0" y="768" type="line"/>
      <point x="128" y="768" type="line"/>
      <point x="128" y="384" type="line"/>
    </contour>
    <contour>
      <point x="256" y="128" type="line"/>
      <point x="256" y="768" type="line"/>
      <point x="384" y="768" type="line"/>
      <point x="384" y="128" type="line"/>
    </contour>
    <contour>
      <point x="128" y="0" type="line"/>
      <point x="128" y="128" type="line"/>
      <point x="256" y="128" type="line"/>
      <point x="256" y="0" type="line"/>
    </contour>
  </outline>
</glyph>
<glyph name="uniFF99" format="1">
  <advance width="512"/>
  <unicode hex="FF99"/>
  <outline>
    <contour>
      <point x="128" y="512" type="line"/>
      <point x="128" y="768" type="line"/>
      <point x="256" y="768" type="line"/>
      <point x="256" y="128" type="line"/>
      <point x="384" y="128" type="line"/>
      <point x="384" y="0" type="line"/>
      <point x="0" y="0" type="line"/>
      <point x="0" y="512" type="line"/>
    </contour>
  </outline>
</glyph>
<glyph name="uniFF9A" format="1">
  <advance width="512"/>
  <unicode hex="FF9A"/>
  <outline>
    <contour>
      <point x="0" y="0" type="line"/>
      <point x="0" y="768" type="line"/>
      <point x="128" y="768" type="line"/>
      <point x="128" y="128" type="line"/>
      <point x="256" y="128" type="line"/>
      <point x="256" y="0" type="line"/>
    </contour>
    <contour>
      <point x="256" y="128" type="line"/>
      <point x="256" y="256" type="line"/>
      <point x="384" y="256" type="line"/>
      <point x="384" y="128" type="line"/>
    </contour>
  </outline>
</glyph>
<glyph name="uniFF9E" format="1">
  <advance width="512"/>
  <unicode hex="FF9E"/>
  <outline>
    <contour>
      <point x="0" y="640" type="line"/>
      <point x="0" y="768" type="line"/>
      <point x="128" y="768" type="line"/>
      <point x="128" y="640" type="line"/>
    </contour>
    <contour>
      <point x="256" y="640" type="line"/>
      <point x="256" y="768" type="line"/>
      <point x="384" y="768" type="line"/>
      <point x="384" y="640" type="line"/>
    </contour>
  </outline>
</glyph>
<glyph name="uniFFE2" format="1">
  <advance width="1024"/>
  <unicode hex="FFE2"/>
  <outline>
    <contour>
      <point x="0" y="256" type="line"/>
      <point x="0" y="384" type="line"/>
      <point x="896" y="384" type="line"/>
      <point x="896" y="0" type="line"/>
      <point x="768" y="0" type="line"/>
      <point x="768" y="256" type="line"/>
    </contour>
  </outline>
</glyph>
<glyph name="uniFFE3" format="1">
  <advance width="1024"/>
  <unicode hex="FFE3"/>
  <outline>
    <contour>
      <point x="0" y="640" type="line"/>
      <point x="0" y="768" type="line"/>
      <point x="896" y="768" type="line"/>
      <point x="896" y="640" type="line"/>
    </contour>
  </outline>
</glyph>
<glyph name=".notdef" format="1">
  <advance width="128"/>
  <outline>
    <contour>
      <point x="320" y="90" type="line"/>
      <point x="320" y="192" type="line"/>
      <point x="218" y="192" type="line"/>
      <point x="218" y="90" type="line"/>
    </contour>
    <contour>
      <point x="421" y="209" type="line"/>
      <point x="421" y="311" type="line"/>
      <point x="218" y="311" type="line"/>
      <point x="218" y="209" type="line"/>
    </contour>
    <contour>
      <point x="320" y="328" type="line"/>
      <point x="320" y="430" type="line"/>
      <point x="218" y="430" type="line"/>
      <point x="218" y="328" type="line"/>
    </contour>
    <contour>
      <point x="421" y="447" type="line"/>
      <point x="421" y="548" type="line"/>
      <point x="320" y="548" type="line" smooth="yes"/>
      <point x="277" y="548"/>
      <point x="291" y="548"/>
      <point x="267" y="538"/>
      <point x="248" y="519" type="curve"/>
      <point x="218" y="488"/>
      <point x="228" y="498"/>
      <point x="218" y="474"/>
      <point x="218" y="447" type="curve"/>
    </contour>
    <contour>
      <point x="0" y="0" type="line"/>
      <point x="0" y="640" type="line"/>
      <point x="640" y="640" type="line"/>
      <point x="640" y="0" type="line"/>
    </contour>
  </outline>
</glyph>
